# xmcd CD database file
#
# Track frame offsets:
#	180
#	29117
#	62284
#	91147
#	110556
#	128377
#	156943
#	184299
#	215412
#	243717
#	282477
#	288479
#
# Disc length: 4314 seconds
#
# Revision: 0
# Processed by: cddbd v1.5.1PL0 Copyright (c) Steve Scherf et al.
# Submitted via: CDex 1.51
#
DISCID=b210d80c
DTITLE=No Square Trio - Empreintes
DYEAR=1999
DGENRE=Jazz
TTITLE0=Tres
TTITLE1=Troisième position
TTITLE2=Patricia
TTITLE3=Oui ou non
TTITLE4=Empreintes
TTITLE5=La colère du vieil homme
TTITLE6=3/4 Groove
TTITLE7=Seven
TTITLE8=O Sea
TTITLE9=Baris
TTITLE10=Présentation
TTITLE11=Live at Havana
EXTD=YEAR: 1999
EXTT0=
EXTT1=
EXTT2=
EXTT3=
EXTT4=
EXTT5=
EXTT6=
EXTT7=
EXTT8=
EXTT9=
EXTT10=
EXTT11=
PLAYORDER=
